<?xml version="1.0" encoding="UTF-8"?>
<svg width="88px" height="44px" viewBox="0 0 88 44" version="1.1" xmlns="http://www.w3.org/2000/svg" xmlns:xlink="http://www.w3.org/1999/xlink">
    <!-- Generator: Sketch 48.2 (47327) - http://www.bohemiancoding.com/sketch -->
    <title>Logo/Trade_Dark</title>
    <desc>Created with Sketch.</desc>
    <defs>
        <polygon id="path-1" points="0.0839171811 0.0364583333 19.6923791 0.0364583333 19.6923791 25.7458848 0.0839171811 25.7458848"></polygon>
        <polygon id="path-3" points="0.00549125514 0.0519238683 18.2452803 0.0519238683 18.2452803 19.2644033 0.00549125514 19.2644033"></polygon>
    </defs>
    <g id="Symbols" stroke="none" stroke-width="1" fill="none" fill-rule="evenodd">
        <g id="Logo/Trade_Dark">
            <g id="Page-1" transform="translate(5.000000, 10.000000)">
                <polygon id="Fill-1" fill="#010202" points="0 1.52777521 0 6.41553241 4.18757716 6.41553241 4.18757716 25.5767721 9.54506173 25.5767721 9.54506173 6.41553241 13.7326389 6.41553241 13.7326389 1.52777521"></polygon>
                <g id="Group-12" transform="translate(14.223251, 0.143673)">
                    <g id="Group-4" transform="translate(25.925926, 0.000000)">
                        <mask id="mask-2" fill="white">
                            <use xlink:href="#path-1"></use>
                        </mask>
                        <g id="Clip-3"></g>
                        <path d="M9.87995628,21.1687886 C12.6531301,21.1687886 14.6051363,19.1609697 14.6051363,16.1224151 C14.6051363,13.2446373 12.7885211,11.0755015 9.87995628,11.0755015 C6.98705504,11.0755015 5.12254887,13.2612011 5.12254887,16.1224151 C5.12254887,19.289519 7.2086857,21.1687886 9.87995628,21.1687886 Z M14.9673791,23.5917824 C13.8959542,24.9388503 11.8602289,25.7459748 9.67290895,25.7459748 C4.11791924,25.7459748 0.0839171811,21.7854295 0.0839171811,16.1915509 C0.0839171811,10.80634 3.63360854,6.53306327 9.49916924,6.53306327 C11.4909645,6.53306327 13.2690509,7.07678755 14.6546476,8.08015689 L14.6546476,0.0364583333 L19.6923791,0.0364583333 L19.6923791,25.4334234 L14.9673791,25.4334234 L14.9673791,23.5917824 Z" id="Fill-2" fill="#010202" mask="url(#mask-2)"></path>
                    </g>
                    <g id="Group-7" transform="translate(47.530864, 6.481481)">
                        <mask id="mask-4" fill="white">
                            <use xlink:href="#path-3"></use>
                        </mask>
                        <g id="Clip-6"></g>
                        <path d="M5.39106224,7.55405864 L13.0334491,7.55405864 C12.6177341,5.64400206 11.3590664,4.35940844 9.11737397,4.35940844 C7.22244084,4.35940844 5.73242027,5.62293724 5.39106224,7.55405864 Z M5.28663837,11.4501492 C5.57902521,13.5042387 7.17094907,14.748143 9.52498714,14.748143 C11.5612526,14.748143 12.814519,13.7310905 13.7874614,12.2021811 L17.6983153,14.4825823 C16.2230581,17.3319136 13.2293338,19.2644753 9.52498714,19.2644753 C3.89654064,19.2644753 0.00549125514,15.6163014 0.00549125514,9.71041152 C0.00549125514,4.15164095 3.75772891,0.0519238683 9.14275977,0.0519238683 C14.7360983,0.0519238683 18.2452803,3.78453704 18.2452803,9.34330761 C18.2452803,10.1210854 18.2143133,10.8425103 18.1543596,11.4501492 L5.28663837,11.4501492 Z" id="Fill-5" fill="#010202" mask="url(#mask-4)"></path>
                    </g>
                    <path d="M16.7717155,21.7061034 C15.4442721,21.7061034 14.3683462,20.6299974 14.3683462,19.3027341 C14.3683462,17.9752906 15.4442721,16.8993647 16.7717155,16.8993647 C18.099159,16.8993647 19.1750849,17.9752906 19.1750849,19.3027341 C19.1750849,20.6299974 18.099159,21.7061034 16.7717155,21.7061034 M17.0342155,6.63755916 C13.063948,6.63755916 10.2401826,9.66801183 10.2401826,12.599982 L14.9027083,12.599982 C15.0287371,11.5373791 15.8889738,10.6632793 17.0732845,10.6632793 C18.348876,10.6632793 19.1925489,11.6032742 19.1925489,12.8911085 L19.1925489,13.9292258 C18.4297145,13.4992876 17.3221013,13.238588 16.0873791,13.238588 C12.2690664,13.238588 9.69483796,16.3023483 9.69483796,19.4604501 C9.69483796,23.2805633 12.6759594,25.6765509 16.1187063,25.6765509 C17.7819264,25.6765509 19.0598585,25.1229244 19.8875077,24.2520653 L19.8875077,25.4333153 L24.1609645,25.4333153 L24.1609645,13.4492361 C24.1609645,9.11708591 21.2867876,6.63755916 17.0342155,6.63755916" id="Fill-8" fill="#010202"></path>
                    <path d="M8.82853395,12.0359311 L7.64674383,12.0359311 C5.84021091,12.0359311 5.21546811,12.9044496 5.21546811,14.5024949 L5.21546811,25.4333333 L0.179356996,25.4333333 L0.179356996,6.84606481 L5.21546811,6.84606481 L5.21546811,8.33986626 C5.87567901,7.40203189 6.91739712,6.77656893 8.82853395,6.77656893 L8.82853395,12.0359311 Z" id="Fill-10" fill="#010202"></path>
                </g>
            </g>
        </g>
    </g>
</svg>